<svg width="28" height="36" viewBox="0 0 28 36" fill="none" xmlns="http://www.w3.org/2000/svg">
<g id="Frame" clip-path="url(#clip0_1236_3957)">
<g id="Group">
<path id="Vector" fill-rule="evenodd" clip-rule="evenodd" d="M0.000154616 0.00585938H13.9913C21.6873 0.00585938 27.9824 6.32423 27.9824 14.0487V21.9511C27.9824 26.0625 26.1914 29.7823 23.3542 32.3631H-0.0175781V0.00585938H0.000154616ZM21.439 33.8225C19.2756 35.193 16.7221 35.9939 13.9913 35.9939H0.000154616V33.8225H21.439Z" fill="#0B5FFF"/>
<path id="Vector_2" fill-rule="evenodd" clip-rule="evenodd" d="M8.26367 25.9734V10.0439H9.34537H14.4701C15.8178 10.0439 16.8995 10.3999 17.733 11.094C18.5664 11.806 18.992 12.7137 18.992 13.835C18.992 14.6003 18.726 15.4724 18.4245 16.0242C17.0236 15.5436 14.7716 15.5258 13.3175 16.1843C11.2073 17.1098 10.3029 19.566 11.2428 21.6662C11.3314 21.8976 11.4556 22.1112 11.5974 22.3069C10.6753 18.6405 13.885 16.6115 16.9527 17.3768C18.6551 18.0354 19.719 19.3524 19.719 21.2568C19.719 22.7341 19.2225 23.891 18.2117 24.7097C17.201 25.5462 15.8001 25.9734 13.9913 25.9734H9.3631H8.28141H8.26367Z" fill="#FEFEFE"/>
</g>
</g>
<defs>
<clipPath id="clip0_1236_3957">
<rect width="28" height="36" fill="white"/>
</clipPath>
</defs>
</svg>
